{"asset":{"version":"2.0","generator":"THREE.GLTFExporter"},"scenes":[{"nodes":[0],"name":"AuxScene"}],"scene":0,"nodes":[{"mesh":0}],"bufferViews":[{"buffer":0,"byteOffset":0,"byteLength":180828,"target":34962,"byteStride":12},{"buffer":0,"byteOffset":180828,"byteLength":180828,"target":34962,"byteStride":12}],"buffers":[{"byteLength":361656,"uri":"data:application/octet-stream;base64,"}],"accessors":[{"bufferView":0,"componentType":5126,"count":15069,"max":[99.46817016601562,68.09236145019531,35.7520751953125],"min":[-99.7318344116211,-19.907638549804688,-363.5479431152344],"type":"VEC3"},{"bufferView":1,"componentType":5126,"count":15069,"max":[0.9701411128044128,1,0.9565229415893555],"min":[-0.9218413233757019,0.13042563199996948,-0.5547053813934326],"type":"VEC3"}],"materials":[{"pbrMetallicRoughness":{"baseColorFactor":[0.5019607843137255,0.5019607843137255,0.5019607843137255,1],"metallicFactor":0,"roughnessFactor":1}}],"meshes":[{"primitives":[{"mode":4,"attributes":{"POSITION":0,"NORMAL":1},"material":0}]}]}